<?xml version="1.0" encoding="utf-8"?>
<svg xmlns="http://www.w3.org/2000/svg" style="margin: auto; display: block; shape-rendering: auto; background: none;" width="320" height="50" preserveAspectRatio="xMidYMid">
<style type="text/css">
  text {
    text-anchor: middle; font-size: 46px; opacity: 0;
  }
</style>
<g style="transform-origin:160px 25px;transform:scale(1)">
<g transform="translate(160,25)">
  <g transform="translate(0,5)"><g class="path" style="opacity: 1; transform-origin: -80.799992px 2.604497px; animation: 10s linear forwards fade-out-5ca51d9f-c1d4-486b-b4fc-c3e8bc47eb6d;"><path d="M26.50-10.26L26.50-10.26Q27.09-10.26 27.44-9.71L27.44-9.71L27.44-9.71Q27.78-9.15 27.78-8.19L27.78-8.19L27.78-8.19Q27.78-6.35 26.91-5.34L26.91-5.34L26.91-5.34Q24.79-2.90 22.56-1.33L22.56-1.33L22.56-1.33Q20.33 0.23 17.48 0.23L17.48 0.23L17.48 0.23Q15.09 0.23 14.12-1.24L14.12-1.24L14.12-1.24Q13.16-2.71 13.16-5.66L13.16-5.66L13.16-5.66Q13.16-6.90 13.39-8.65L13.39-8.65L13.39-8.65Q9.34-8.65 7.77-8.74L7.77-8.74L7.77-8.74Q7.68-7.45 7.68-6.95L7.68-6.95L7.68-5.98L7.68-5.98Q7.64-3.13 7.54-1.98L7.54-1.98L7.54-1.98Q7.45-0.83 6.99-0.30L6.99-0.30L6.99-0.30Q6.53 0.23 5.47 0.23L5.47 0.23L5.47 0.23Q3.73 0.23 3.01-1.61L3.01-1.61L3.01-1.61Q2.30-3.45 2.30-7.50L2.30-7.50L2.30-7.50Q2.30-13.48 4.00-18.86L4.00-18.86L4.00-18.86Q4.42-20.19 5.34-20.82L5.34-20.82L5.34-20.82Q6.26-21.44 8.00-21.44L8.00-21.44L8.00-21.44Q8.92-21.44 9.29-21.21L9.29-21.21L9.29-21.21Q9.66-20.98 9.66-20.33L9.66-20.33L9.66-20.33Q9.66-19.60 8.97-17.02L8.97-17.02L8.97-17.02Q8.60-15.50 8.28-13.34L8.28-13.34L14.17-13.34L14.17-13.34Q14.63-15.50 15.50-18.86L15.50-18.86L15.50-18.86Q15.87-20.24 16.63-20.84L16.63-20.84L16.63-20.84Q17.39-21.44 18.91-21.44L18.91-21.44L18.91-21.44Q19.96-21.44 20.38-21.18L20.38-21.18L20.38-21.18Q20.79-20.93 20.79-20.24L20.79-20.24L20.79-20.24Q20.79-19.09 19.64-13.94L19.64-13.94L19.64-13.94Q18.35-8.05 18.35-6.67L18.35-6.67L18.35-6.67Q18.35-5.80 18.72-5.31L18.72-5.31L18.72-5.31Q19.09-4.83 19.69-4.83L19.69-4.83L19.69-4.83Q20.61-4.83 21.87-5.96L21.87-5.96L21.87-5.96Q23.14-7.08 25.25-9.61L25.25-9.61L25.25-9.61Q25.81-10.26 26.50-10.26L26.50-10.26" fill="#63d471" stroke="none" stroke-width="none" transform="translate(-95.83999633789062,13.209497403231536)" style="fill: rgb(99, 212, 113);"></path></g><g class="path" style="opacity: 1; transform-origin: -61.224994px 2.604497px; animation: 10s linear 0.909091s forwards fade-out-5ca51d9f-c1d4-486b-b4fc-c3e8bc47eb6d;"><path d="M44.57-10.26L44.57-10.26Q45.17-10.26 45.52-9.71L45.52-9.71L45.52-9.71Q45.86-9.15 45.86-8.19L45.86-8.19L45.86-8.19Q45.86-6.35 44.99-5.34L44.99-5.34L44.99-5.34Q43.29-3.27 40.18-1.52L40.18-1.52L40.18-1.52Q37.08 0.23 33.53 0.23L33.53 0.23L33.53 0.23Q28.70 0.23 26.04-2.39L26.04-2.39L26.04-2.39Q23.37-5.01 23.37-9.57L23.37-9.57L23.37-9.57Q23.37-12.74 24.70-15.48L24.70-15.48L24.70-15.48Q26.04-18.22 28.40-19.83L28.40-19.83L28.40-19.83Q30.77-21.44 33.76-21.44L33.76-21.44L33.76-21.44Q36.43-21.44 38.04-19.85L38.04-19.85L38.04-19.85Q39.65-18.26 39.65-15.55L39.65-15.55L39.65-15.55Q39.65-12.37 37.38-10.10L37.38-10.10L37.38-10.10Q35.10-7.82 29.67-6.49L29.67-6.49L29.67-6.49Q30.82-4.37 34.04-4.37L34.04-4.37L34.04-4.37Q36.11-4.37 38.75-5.82L38.75-5.82L38.75-5.82Q41.40-7.27 43.33-9.61L43.33-9.61L43.33-9.61Q43.88-10.26 44.57-10.26L44.57-10.26zM32.98-16.93L32.98-16.93Q31.28-16.93 30.11-14.95L30.11-14.95L30.11-14.95Q28.93-12.97 28.93-10.17L28.93-10.17L28.93-10.07L28.93-10.07Q31.65-10.72 33.21-12.01L33.21-12.01L33.21-12.01Q34.78-13.29 34.78-15.00L34.78-15.00L34.78-15.00Q34.78-15.87 34.29-16.40L34.29-16.40L34.29-16.40Q33.81-16.93 32.98-16.93L32.98-16.93" fill="#63d471" stroke="none" stroke-width="none" transform="translate(-95.83999633789062,13.209497403231536)" style="fill: rgb(99, 212, 113);"></path></g><g class="path" style="opacity: 1; transform-origin: -33.209997px -6.110502px; animation: 10s linear 1.818182s forwards fade-out-5ca51d9f-c1d4-486b-b4fc-c3e8bc47eb6d;"><path d="M83.67-10.26L83.67-10.26Q84.27-10.26 84.62-9.71L84.62-9.71L84.62-9.71Q84.96-9.15 84.96-8.19L84.96-8.19L84.96-8.19Q84.96-6.39 84.09-5.34L84.09-5.34L84.09-5.34Q81.83-2.48 79.44-1.13L79.44-1.13L79.44-1.13Q77.05 0.23 74.34 0.23L74.34 0.23L74.34 0.23Q70.66 0.23 68.98-1.75L68.98-1.75L68.98-1.75Q67.30-3.73 67.30-8.10L67.30-8.10L67.30-8.10Q67.30-10.95 67.99-14.95L67.99-14.95L67.90-14.90L67.90-14.90Q62.84-7.04 58.33-3.33L58.33-3.33L58.33-3.33Q53.82 0.37 49.13 0.37L49.13 0.37L49.13 0.37Q46.69 0.37 44.67-0.57L44.67-0.57L44.67-0.57Q42.64-1.52 41.47-3.17L41.47-3.17L41.47-3.17Q40.30-4.83 40.30-6.81L40.30-6.81L40.30-6.81Q40.30-8.42 40.89-9.36L40.89-9.36L40.89-9.36Q41.49-10.30 42.55-10.30L42.55-10.30L42.55-10.30Q43.84-10.30 44.39-8.97L44.39-8.97L44.39-8.97Q45.54-6.44 46.55-5.52L46.55-5.52L46.55-5.52Q47.56-4.60 49.27-4.60L49.27-4.60L49.27-4.60Q52.03-4.60 55.57-7.47L55.57-7.47L55.57-7.47Q59.11-10.35 62.33-14.95L62.33-14.95L62.33-14.95Q61.23-14.81 60.17-14.81L60.17-14.81L60.17-14.81Q56.58-14.81 53.91-16.17L53.91-16.17L53.91-16.17Q51.24-17.53 49.82-20.01L49.82-20.01L49.82-20.01Q48.39-22.49 48.39-25.85L48.39-25.85L48.39-25.85Q48.39-29.67 50.00-32.66L50.00-32.66L50.00-32.66Q51.61-35.65 54.51-37.33L54.51-37.33L54.51-37.33Q57.41-39.01 61.23-39.01L61.23-39.01L61.23-39.01Q66.01-39.01 70.75-37.54L70.75-37.54L70.75-37.54Q71.12-38.18 71.85-38.52L71.85-38.52L71.85-38.52Q72.59-38.87 73.51-38.87L73.51-38.87L73.51-38.87Q74.89-38.87 75.65-38.06L75.65-38.06L75.65-38.06Q76.41-37.26 76.41-35.88L76.41-35.88L76.41-35.88Q76.41-34.13 76.01-31.42L76.01-31.42L76.01-31.42Q75.62-28.70 74.84-24.43L74.84-24.43L74.84-24.43Q73.88-18.91 73.39-15.55L73.39-15.55L73.39-15.55Q72.91-12.19 72.91-9.57L72.91-9.57L72.91-9.57Q72.91-7.31 73.67-6.28L73.67-6.28L73.67-6.28Q74.43-5.24 76.04-5.24L76.04-5.24L76.04-5.24Q77.51-5.24 78.98-6.26L78.98-6.26L78.98-6.26Q80.45-7.27 82.43-9.61L82.43-9.61L82.43-9.61Q82.94-10.26 83.67-10.26L83.67-10.26zM62.15-19.55L62.15-19.55Q64.26-19.55 65.23-19.69L65.23-19.69L65.23-19.69Q66.01-21.16 66.61-22.59L66.61-22.59L66.61-22.59Q68.82-27.55 69.87-32.89L69.87-32.89L69.87-32.89Q67.44-33.49 65.62-33.74L65.62-33.74L65.62-33.74Q63.80-33.99 61.87-33.99L61.87-33.99L61.87-33.99Q58.37-33.99 56.58-31.97L56.58-31.97L56.58-31.97Q54.79-29.95 54.79-26.17L54.79-26.17L54.79-26.17Q54.79-22.86 56.53-21.23L56.53-21.23L56.53-21.23Q58.28-19.60 62.15-19.55L62.15-19.55" fill="#63d471" stroke="none" stroke-width="none" transform="translate(-95.83999633789062,13.209497403231536)" style="fill: rgb(99, 212, 113);"></path></g><g class="path" style="opacity: 1; transform-origin: -1.999996px 2.604497px; animation: 10s linear 2.727273s forwards fade-out-5ca51d9f-c1d4-486b-b4fc-c3e8bc47eb6d;"><path d="M84.50 0.23L84.50 0.23Q82.75 0.23 82.04-1.61L82.04-1.61L82.04-1.61Q81.33-3.45 81.33-7.50L81.33-7.50L81.33-7.50Q81.33-13.48 83.03-18.86L83.03-18.86L83.03-18.86Q83.44-20.19 84.39-20.82L84.39-20.82L84.39-20.82Q85.33-21.44 87.03-21.44L87.03-21.44L87.03-21.44Q87.95-21.44 88.32-21.21L88.32-21.21L88.32-21.21Q88.69-20.98 88.69-20.33L88.69-20.33L88.69-20.33Q88.69-19.60 88.00-17.02L88.00-17.02L88.00-17.02Q87.91-16.70 87.61-15.55L87.61-15.55L87.61-15.55Q87.31-14.40 87.05-12.86L87.05-12.86L87.05-12.86Q86.80-11.32 86.71-9.48L86.71-9.48L86.71-9.48Q88.37-15.92 90.90-18.68L90.90-18.68L90.90-18.68Q93.43-21.44 97.01-21.44L97.01-21.44L97.01-21.44Q99.41-21.44 100.76-19.94L100.76-19.94L100.76-19.94Q102.12-18.45 102.12-16.10L102.12-16.10L102.12-16.10Q102.12-14.17 101.27-12.83L101.27-12.83L101.27-12.83Q100.42-11.50 99.04-11.50L99.04-11.50L99.04-11.50Q98.16-11.50 97.63-11.91L97.63-11.91L97.63-11.91Q97.11-12.33 97.11-13.06L97.11-13.06L97.11-13.06Q97.11-13.39 97.20-13.80L97.20-13.80L97.20-13.80Q97.29-14.21 97.34-14.40L97.34-14.40L97.34-14.40Q97.57-15.09 97.57-15.69L97.57-15.69L97.57-15.69Q97.57-16.93 96.37-16.93L96.37-16.93L96.37-16.93Q95.45-16.93 94.58-15.98L94.58-15.98L94.58-15.98Q93.70-15.04 93.17-13.46L93.17-13.46L93.17-13.46Q92.64-11.87 92.64-10.03L92.64-10.03L92.64-10.03Q92.64-7.54 93.79-6.05L93.79-6.05L93.79-6.05Q94.94-4.55 97.11-4.55L97.11-4.55L97.11-4.55Q98.81-4.55 100.14-5.68L100.14-5.68L100.14-5.68Q101.48-6.81 103.82-9.61L103.82-9.61L103.82-9.61Q104.37-10.26 105.06-10.26L105.06-10.26L105.06-10.26Q105.66-10.26 106.01-9.71L106.01-9.71L106.01-9.71Q106.35-9.15 106.35-8.19L106.35-8.19L106.35-8.19Q106.35-6.35 105.48-5.34L105.48-5.34L105.48-5.34Q103.41-2.85 101.34-1.31L101.34-1.31L101.34-1.31Q99.27 0.23 96.65 0.23L96.65 0.23L96.65 0.23Q94.48 0.23 92.71-0.71L92.71-0.71L92.71-0.71Q90.94-1.66 89.84-2.99L89.84-2.99L89.84-2.99Q88.73-4.32 88.41-5.57L88.41-5.57L88.41-5.57Q88.32-5.20 87.72-2.99L87.72-2.99L87.72-2.99Q87.22-1.15 86.55-0.46L86.55-0.46L86.55-0.46Q85.88 0.23 84.50 0.23L84.50 0.23" fill="#63d471" stroke="none" stroke-width="none" transform="translate(-95.83999633789062,13.209497403231536)" style="fill: rgb(99, 212, 113);"></path></g><g class="path" style="opacity: 1; transform-origin: 13.065002px -14.850502px; animation: 10s linear 3.636364s forwards fade-out-5ca51d9f-c1d4-486b-b4fc-c3e8bc47eb6d;"><path d="M108.65-24.47L108.65-24.47Q106.72-24.47 105.75-25.37L105.75-25.37L105.75-25.37Q104.79-26.27 104.79-27.88L104.79-27.88L104.79-27.88Q104.79-29.49 106.05-30.57L106.05-30.57L106.05-30.57Q107.32-31.65 109.20-31.65L109.20-31.65L109.20-31.65Q110.91-31.65 111.96-30.82L111.96-30.82L111.96-30.82Q113.02-29.99 113.02-28.47L113.02-28.47L113.02-28.47Q113.02-26.63 111.83-25.55L111.83-25.55L111.83-25.55Q110.63-24.47 108.65-24.47L108.65-24.47" fill="#63d471" stroke="none" stroke-width="none" transform="translate(-95.83999633789062,13.209497403231536)" style="fill: rgb(99, 212, 113);"></path></g><g class="path" style="opacity: 1; transform-origin: 14.285004px 2.604497px; animation: 10s linear 4.545455s forwards fade-out-5ca51d9f-c1d4-486b-b4fc-c3e8bc47eb6d;"><path d="M108.28 0.23L108.28 0.23Q105.29 0.23 103.94-1.89L103.94-1.89L103.94-1.89Q102.58-4.00 102.58-7.50L102.58-7.50L102.58-7.50Q102.58-9.57 103.11-12.81L103.11-12.81L103.11-12.81Q103.64-16.05 104.47-18.86L104.47-18.86L104.47-18.86Q104.88-20.33 105.57-20.88L105.57-20.88L105.57-20.88Q106.26-21.44 107.78-21.44L107.78-21.44L107.78-21.44Q110.12-21.44 110.12-19.87L110.12-19.87L110.12-19.87Q110.12-18.72 109.25-14.54L109.25-14.54L109.25-14.54Q108.15-9.48 108.15-7.68L108.15-7.68L108.15-7.68Q108.15-6.30 108.51-5.57L108.51-5.57L108.51-5.57Q108.88-4.83 109.76-4.83L109.76-4.83L109.76-4.83Q110.58-4.83 111.83-5.98L111.83-5.98L111.83-5.98Q113.07-7.13 115.14-9.61L115.14-9.61L115.14-9.61Q115.69-10.26 116.38-10.26L116.38-10.26L116.38-10.26Q116.98-10.26 117.32-9.71L117.32-9.71L117.32-9.71Q117.67-9.15 117.67-8.19L117.67-8.19L117.67-8.19Q117.67-6.35 116.79-5.34L116.79-5.34L116.79-5.34Q112.24 0.23 108.28 0.23L108.28 0.23" fill="#63d471" stroke="none" stroke-width="none" transform="translate(-95.83999633789062,13.209497403231536)" style="fill: rgb(99, 212, 113);"></path></g><g class="path" style="opacity: 1; transform-origin: 28.065006px 2.604498px; animation: 10s linear 5.454545s forwards fade-out-5ca51d9f-c1d4-486b-b4fc-c3e8bc47eb6d;"><path d="M122.73 0.23L122.73 0.23Q118.22 0.23 115.71-2.32L115.71-2.32L115.71-2.32Q113.21-4.88 113.21-9.06L113.21-9.06L113.21-9.06Q113.21-12.79 114.68-15.59L114.68-15.59L114.68-15.59Q116.15-18.40 118.50-19.92L118.50-19.92L118.50-19.92Q120.84-21.44 123.42-21.44L123.42-21.44L123.42-21.44Q125.95-21.44 127.35-19.94L127.35-19.94L127.35-19.94Q128.75-18.45 128.75-16.10L128.75-16.10L128.75-16.10Q128.75-14.17 127.90-12.83L127.90-12.83L127.90-12.83Q127.05-11.50 125.67-11.50L125.67-11.50L125.67-11.50Q124.80-11.50 124.27-11.91L124.27-11.91L124.27-11.91Q123.74-12.33 123.74-13.06L123.74-13.06L123.74-13.06Q123.74-13.39 123.83-13.80L123.83-13.80L123.83-13.80Q123.92-14.21 123.97-14.40L123.97-14.40L123.97-14.40Q124.20-15.09 124.20-15.69L124.20-15.69L124.20-15.69Q124.20-16.28 123.90-16.61L123.90-16.61L123.90-16.61Q123.60-16.93 123.05-16.93L123.05-16.93L123.05-16.93Q121.99-16.93 121.07-15.98L121.07-15.98L121.07-15.98Q120.15-15.04 119.60-13.43L119.60-13.43L119.60-13.43Q119.05-11.82 119.05-9.89L119.05-9.89L119.05-9.89Q119.05-4.55 123.69-4.55L123.69-4.55L123.69-4.55Q125.58-4.55 127.76-5.82L127.76-5.82L127.76-5.82Q129.95-7.08 132.07-9.61L132.07-9.61L132.07-9.61Q132.62-10.26 133.31-10.26L133.31-10.26L133.31-10.26Q133.91-10.26 134.25-9.71L134.25-9.71L134.25-9.71Q134.60-9.15 134.60-8.19L134.60-8.19L134.60-8.19Q134.60-6.44 133.72-5.34L133.72-5.34L133.72-5.34Q131.56-2.67 128.55-1.22L128.55-1.22L128.55-1.22Q125.53 0.23 122.73 0.23L122.73 0.23" fill="#63d471" stroke="none" stroke-width="none" transform="translate(-95.83999633789062,13.209497403231536)" style="fill: rgb(99, 212, 113);"></path></g><g class="path" style="opacity: 1; transform-origin: 47.865005px 2.604497px; animation: 10s linear 6.363636s forwards fade-out-5ca51d9f-c1d4-486b-b4fc-c3e8bc47eb6d;"><path d="M155.16-10.26L155.16-10.26Q155.76-10.26 156.10-9.71L156.10-9.71L156.10-9.71Q156.45-9.15 156.45-8.19L156.45-8.19L156.45-8.19Q156.45-6.35 155.57-5.34L155.57-5.34L155.57-5.34Q153.46-2.90 151.22-1.33L151.22-1.33L151.22-1.33Q148.99 0.23 146.14 0.23L146.14 0.23L146.14 0.23Q143.75 0.23 142.78-1.24L142.78-1.24L142.78-1.24Q141.82-2.71 141.82-5.66L141.82-5.66L141.82-5.66Q141.82-6.90 142.05-8.65L142.05-8.65L142.05-8.65Q138-8.65 136.44-8.74L136.44-8.74L136.44-8.74Q136.34-7.45 136.34-6.95L136.34-6.95L136.34-5.98L136.34-5.98Q136.30-3.13 136.21-1.98L136.21-1.98L136.21-1.98Q136.11-0.83 135.65-0.30L135.65-0.30L135.65-0.30Q135.19 0.23 134.14 0.23L134.14 0.23L134.14 0.23Q132.39 0.23 131.68-1.61L131.68-1.61L131.68-1.61Q130.96-3.45 130.96-7.50L130.96-7.50L130.96-7.50Q130.96-13.48 132.66-18.86L132.66-18.86L132.66-18.86Q133.08-20.19 134.00-20.82L134.00-20.82L134.00-20.82Q134.92-21.44 136.67-21.44L136.67-21.44L136.67-21.44Q137.59-21.44 137.95-21.21L137.95-21.21L137.95-21.21Q138.32-20.98 138.32-20.33L138.32-20.33L138.32-20.33Q138.32-19.60 137.63-17.02L137.63-17.02L137.63-17.02Q137.26-15.50 136.94-13.34L136.94-13.34L142.83-13.34L142.83-13.34Q143.29-15.50 144.16-18.86L144.16-18.86L144.16-18.86Q144.53-20.24 145.29-20.84L145.29-20.84L145.29-20.84Q146.05-21.44 147.57-21.44L147.57-21.44L147.57-21.44Q148.63-21.44 149.04-21.18L149.04-21.18L149.04-21.18Q149.45-20.93 149.45-20.24L149.45-20.24L149.45-20.24Q149.45-19.09 148.30-13.94L148.30-13.94L148.30-13.94Q147.02-8.05 147.02-6.67L147.02-6.67L147.02-6.67Q147.02-5.80 147.38-5.31L147.38-5.31L147.38-5.31Q147.75-4.83 148.35-4.83L148.35-4.83L148.35-4.83Q149.27-4.83 150.53-5.96L150.53-5.96L150.53-5.96Q151.80-7.08 153.92-9.61L153.92-9.61L153.92-9.61Q154.47-10.26 155.16-10.26L155.16-10.26" fill="#63d471" stroke="none" stroke-width="none" transform="translate(-95.83999633789062,13.209497403231536)" style="fill: rgb(99, 212, 113);"></path></g><g class="path" style="opacity: 1; transform-origin: 69.370003px 2.604497px; animation: 10s linear 7.272727s forwards fade-out-5ca51d9f-c1d4-486b-b4fc-c3e8bc47eb6d;"><path d="M157.41 0.23L157.41 0.23Q155.34 0.23 154.03-1.68L154.03-1.68L154.03-1.68Q152.72-3.59 152.72-6.44L152.72-6.44L152.72-6.44Q152.72-9.89 153.18-12.77L153.18-12.77L153.18-12.77Q153.64-15.64 154.70-18.86L154.70-18.86L154.70-18.86Q155.16-20.24 155.99-20.84L155.99-20.84L155.99-20.84Q156.81-21.44 158.61-21.44L158.61-21.44L158.61-21.44Q159.62-21.44 160.01-21.11L160.01-21.11L160.01-21.11Q160.40-20.79 160.40-20.15L160.40-20.15L160.40-20.15Q160.40-19.78 159.90-17.66L159.90-17.66L159.90-17.66Q159.44-15.96 159.16-14.58L159.16-14.58L159.16-14.58Q158.24-9.75 158.24-8.14L158.24-8.14L158.24-8.14Q158.24-7.18 158.47-6.79L158.47-6.79L158.47-6.79Q158.70-6.39 159.21-6.39L159.21-6.39L159.21-6.39Q159.90-6.39 160.93-7.77L160.93-7.77L160.93-7.77Q161.97-9.15 163.14-11.96L163.14-11.96L163.14-11.96Q164.31-14.77 165.42-18.86L165.42-18.86L165.42-18.86Q165.78-20.24 166.54-20.84L166.54-20.84L166.54-20.84Q167.30-21.44 168.82-21.44L168.82-21.44L168.82-21.44Q169.88-21.44 170.29-21.18L170.29-21.18L170.29-21.18Q170.71-20.93 170.71-20.24L170.71-20.24L170.71-20.24Q170.71-19.09 169.56-13.94L169.56-13.94L169.56-13.94Q168.27-8.05 168.27-6.67L168.27-6.67L168.27-6.67Q168.27-5.80 168.64-5.31L168.64-5.31L168.64-5.31Q169.00-4.83 169.60-4.83L169.60-4.83L169.60-4.83Q170.52-4.83 171.79-5.96L171.79-5.96L171.79-5.96Q173.05-7.08 175.17-9.61L175.17-9.61L175.17-9.61Q175.72-10.26 176.41-10.26L176.41-10.26L176.41-10.26Q177.01-10.26 177.35-9.71L177.35-9.71L177.35-9.71Q177.70-9.15 177.70-8.19L177.70-8.19L177.70-8.19Q177.70-6.35 176.82-5.34L176.82-5.34L176.82-5.34Q174.85-2.90 172.57-1.33L172.57-1.33L172.57-1.33Q170.29 0.23 167.39 0.23L167.39 0.23L167.39 0.23Q165.19 0.23 164.15-1.47L164.15-1.47L164.15-1.47Q163.12-3.17 163.12-6.26L163.12-6.26L163.12-6.26Q162.33-3.13 160.77-1.45L160.77-1.45L160.77-1.45Q159.21 0.23 157.41 0.23L157.41 0.23" fill="#63d471" stroke="none" stroke-width="none" transform="translate(-95.83999633789062,13.209497403231536)" style="fill: rgb(99, 212, 113);"></path></g><g class="path" style="opacity: 1; transform-origin: 90.620003px 2.604497px; animation: 10s linear 8.181818s forwards fade-out-5ca51d9f-c1d4-486b-b4fc-c3e8bc47eb6d;"><path d="M178.66 0.23L178.66 0.23Q176.59 0.23 175.28-1.68L175.28-1.68L175.28-1.68Q173.97-3.59 173.97-6.44L173.97-6.44L173.97-6.44Q173.97-9.89 174.43-12.77L174.43-12.77L174.43-12.77Q174.89-15.64 175.95-18.86L175.95-18.86L175.95-18.86Q176.41-20.24 177.24-20.84L177.24-20.84L177.24-20.84Q178.07-21.44 179.86-21.44L179.86-21.44L179.86-21.44Q180.87-21.44 181.26-21.11L181.26-21.11L181.26-21.11Q181.65-20.79 181.65-20.15L181.65-20.15L181.65-20.15Q181.65-19.78 181.15-17.66L181.15-17.66L181.15-17.66Q180.69-15.96 180.41-14.58L180.41-14.58L180.41-14.58Q179.49-9.75 179.49-8.14L179.49-8.14L179.49-8.14Q179.49-7.18 179.72-6.79L179.72-6.79L179.72-6.79Q179.95-6.39 180.46-6.39L180.46-6.39L180.46-6.39Q181.15-6.39 182.18-7.77L182.18-7.77L182.18-7.77Q183.22-9.15 184.39-11.96L184.39-11.96L184.39-11.96Q185.56-14.77 186.67-18.86L186.67-18.86L186.67-18.86Q187.04-20.24 187.80-20.84L187.80-20.84L187.80-20.84Q188.55-21.44 190.07-21.44L190.07-21.44L190.07-21.44Q191.13-21.44 191.54-21.18L191.54-21.18L191.54-21.18Q191.96-20.93 191.96-20.24L191.96-20.24L191.96-20.24Q191.96-19.09 190.81-13.94L190.81-13.94L190.81-13.94Q189.52-8.05 189.52-6.67L189.52-6.67L189.52-6.67Q189.52-5.80 189.89-5.31L189.89-5.31L189.89-5.31Q190.26-4.83 190.85-4.83L190.85-4.83L190.85-4.83Q191.77-4.83 193.04-5.96L193.04-5.96L193.04-5.96Q194.30-7.08 196.42-9.61L196.42-9.61L196.42-9.61Q196.97-10.26 197.66-10.26L197.66-10.26L197.66-10.26Q198.26-10.26 198.61-9.71L198.61-9.71L198.61-9.71Q198.95-9.15 198.95-8.19L198.95-8.19L198.95-8.19Q198.95-6.35 198.08-5.34L198.08-5.34L198.08-5.34Q196.10-2.90 193.82-1.33L193.82-1.33L193.82-1.33Q191.54 0.23 188.65 0.23L188.65 0.23L188.65 0.23Q186.44 0.23 185.40-1.47L185.40-1.47L185.40-1.47Q184.37-3.17 184.37-6.26L184.37-6.26L184.37-6.26Q183.59-3.13 182.02-1.45L182.02-1.45L182.02-1.45Q180.46 0.23 178.66 0.23L178.66 0.23" fill="#63d471" stroke="none" stroke-width="none" transform="translate(-95.83999633789062,13.209497403231536)" style="fill: rgb(99, 212, 113);"></path></g><g class="path" style="opacity: 1; transform-origin: 89.425003px -16.415502px; animation: 10s linear 9.090909s forwards fade-out-5ca51d9f-c1d4-486b-b4fc-c3e8bc47eb6d;"><path d="M183.63-24.47L183.63-24.47Q181.52-24.47 179.91-25.35L179.91-25.35L179.91-25.35Q178.30-26.22 177.42-27.65L177.42-27.65L177.42-27.65Q176.55-29.07 176.55-30.68L176.55-30.68L176.55-30.68Q176.55-31.83 177.28-32.55L177.28-32.55L177.28-32.55Q178.02-33.26 179.17-33.26L179.17-33.26L179.17-33.26Q180.37-33.26 180.92-32.71L180.92-32.71L180.92-32.71Q181.47-32.15 181.79-30.82L181.79-30.82L181.79-30.82Q182.25-28.89 184.32-28.89L184.32-28.89L184.32-28.89Q186.48-28.89 188.05-30.11L188.05-30.11L188.05-30.11Q189.61-31.33 190.30-33.07L190.30-33.07L190.30-33.07Q190.67-33.99 191.13-34.38L191.13-34.38L191.13-34.38Q191.59-34.78 192.33-34.78L192.33-34.78L192.33-34.78Q193.02-34.78 193.50-34.25L193.50-34.25L193.50-34.25Q193.98-33.72 193.98-32.94L193.98-32.94L193.89-32.38L193.89-32.38Q193.43-30.50 192.19-28.70L192.19-28.70L192.19-28.70Q190.95-26.91 188.78-25.69L188.78-25.69L188.78-25.69Q186.62-24.47 183.63-24.47L183.63-24.47" fill="#63d471" stroke="none" stroke-width="none" transform="translate(-95.83999633789062,13.209497403231536)" style="fill: rgb(99, 212, 113);"></path></g></g>
</g>
</g>
<style id="fade-out-5ca51d9f-c1d4-486b-b4fc-c3e8bc47eb6d" data-anikit="">@keyframes fade-out-5ca51d9f-c1d4-486b-b4fc-c3e8bc47eb6d
{
  0% {
    animation-timing-function: cubic-bezier(0.2242,0.7499,0.3142,0.8148);
    opacity: 1;
  }
  100% {
    opacity: 0;
  }
}</style></svg>
